{"title":"The.Hangover.Part.III.2013.720p.TS.OWN.SOURCE.XviD-YanKeeS","uid":8542323,"size":2165101653,"categoryP":"video","categoryS":"hd___movies","magnet":"?xt=urn:btih:e05b0fcf272755a25fd86d47a0048c42c6333f92&amp;dn=The.Hangover.Part.III.2013.720p.TS.OWN.SOURCE.XviD-YanKeeS&amp;tr=udp%3A%2F%2Ftracker.openbittorrent.com%3A80&amp;tr=udp%3A%2F%2Fopen.demonii.com%3A1337&amp;tr=udp%3A%2F%2Ftracker.coppersurfer.tk%3A6969&amp;tr=udp%3A%2F%2Fexodus.desync.com%3A6969","seeders":11,"leechers":1,"uploader":"xxxlavalxxx","files":-1,"time":1370431421,"description":" &lt;a href=&quot;http://www.imdb.com/title/tt1951261/&quot; rel=&quot;nofollow&quot; target=&quot;_NEW&quot;&gt;http://www.imdb.com/title/tt1951261/&lt;/a&gt;\n\n\nWhen one of their own is kidnapped by an angry gangster, the Wolf Pack must track down Mr. Chow, who has escaped from prison and is on the lam. \n\n\n\nDirector:\n Todd Phillips \n\nWriters:\n Todd Phillips, Craig Mazin\n\nStars:\n Bradley Cooper, Ed Helms, Zach Galifianakis \n\nGenres:\n  Comedy \n\nCountry:\n USA \n\nLanguage:\n English \n\n\n\nSource VIDEO: YanKeeS 1080p HD\n Source AUDIO: SUFFiCE (Thx)\n\n General\n Complete name                            : The.Hangover.Part.III.2013.720p.TS.OWN.SOURCE.XviD-YanKeeS.avi\n Format                                   : AVI\n File size                                : 2.02 GiB\n Duration                                 : 1h 35mn\n Overall bit rate                         : 3 036 Kbps\n Movie name                               : YanKeeS\n\n Video\n ID                                       : 0\n Format                                   : MPEG-4 Visual\n Format profile                           : Advanced Simple@L5\n Format settings, BVOP                    : No\n Format settings, QPel                    : No\n Format settings, GMC                     : No warppoints\n Format settings, Matrix                  : Default (H.263)\n Codec ID                                 : XVID\n Codec ID/Hint                            : XviD\n Duration                                 : 1h 35mn\n Bit rate                                 : 2 899 Kbps\n Width                                    : 1 280 pixels\n Height                                   : 536 pixels\n Display aspect ratio                     : 2.40:1\n Frame rate                               : 29.970 fps\n Color space                              : YUV\n Chroma subsampling                       : 4:2:0\n Bit depth                                : 8 bits\n Scan type                                : Progressive\n Compression mode                         : Lossy\n Bits/(Pixel*Frame)                       : 0.141\n Stream size                              : 1.93 GiB (95%)\n Writing library                          : XviD 1.2.1 (UTC 2008-12-04)\n\n Audio\n ID                                       : 1\n Format                                   : MPEG Audio\n Format version                           : Version 1\n Format profile                           : Layer 3\n Mode                                     : Joint stereo\n Mode extension                           : MS Stereo\n Codec ID                                 : 55\n Codec ID/Hint                            : MP3\n Duration                                 : 1h 35mn\n Bit rate mode                            : Constant\n Bit rate                                 : 128 Kbps\n Channel(s)                               : 2 channels\n Sampling rate                            : 48.0 KHz\n Compression mode                         : Lossy\n Stream size                              : 87.0 MiB (4%)\n Alignment                                : Aligned on interleaves\n Interleave, duration                     : 24 ms (0.72 video frame)\n Interleave, preload duration             : 192 ms\n Title                                    : ENG\n\n\n\n    &lt;a href=&quot;\thttp://addpix.net/viewer.php?file=45840969931729710780.jpg&quot; rel=&quot;nofollow&quot; target=&quot;_NEW&quot;&gt;\thttp://addpix.net/viewer.php?file=45840969931729710780.jpg&lt;/a&gt;\n    &lt;a href=&quot;\thttp://addpix.net/viewer.php?file=50269138175069428937.jpg&quot; rel=&quot;nofollow&quot; target=&quot;_NEW&quot;&gt;\thttp://addpix.net/viewer.php?file=50269138175069428937.jpg&lt;/a&gt;\n    &lt;a href=&quot;\thttp://addpix.net/viewer.php?file=06333656754368400496.jpg&quot; rel=&quot;nofollow&quot; target=&quot;_NEW&quot;&gt;\thttp://addpix.net/viewer.php?file=06333656754368400496.jpg&lt;/a&gt;\n    &lt;a href=&quot;\thttp://addpix.net/viewer.php?file=78166216010066121711.jpg&quot; rel=&quot;nofollow&quot; target=&quot;_NEW&quot;&gt;\thttp://addpix.net/viewer.php?file=78166216010066121711.jpg&lt;/a&gt;\n","torrent":{"xt":"urn:btih:e05b0fcf272755a25fd86d47a0048c42c6333f92","amp;dn":"The.Hangover.Part.III.2013.720p.TS.OWN.SOURCE.XviD-YanKeeS","amp;tr":["udp%3A%2F%2Ftracker.openbittorrent.com%3A80","udp%3A%2F%2Fopen.demonii.com%3A1337","udp%3A%2F%2Ftracker.coppersurfer.tk%3A6969","udp%3A%2F%2Fexodus.desync.com%3A6969"],"infoHash":"e05b0fcf272755a25fd86d47a0048c42c6333f92","infoHashBuffer":{"type":"Buffer","data":[224,91,15,207,39,39,85,162,95,216,109,71,160,4,140,66,198,51,63,146]},"announce":[],"urlList":[]}}